<svg width="97" height="138" viewBox="0 0 97 138" fill="none" xmlns="http://www.w3.org/2000/svg">
<path d="M35.7342 110.935H22.519C22.519 103.69 28.4431 97.7534 35.7849 97.7534V110.935H35.7342Z" fill="#711470"/>
<path d="M35.7342 110.935H22.519V137.499C22.519 141.121 25.5064 144.089 29.152 144.089C32.7975 144.089 35.7849 141.121 35.7849 137.499V110.935H35.7342Z" fill="#F6C09C"/>
<path d="M35.7849 110.935H22.519V115.664H35.7849V110.935Z" fill="#EE927E"/>
<path d="M28.0887 145.146C32.3392 145.146 35.7849 141.722 35.7849 137.499C35.7849 133.275 32.3392 129.852 28.0887 129.852C23.8382 129.852 20.3925 133.275 20.3925 137.499C20.3925 141.722 23.8382 145.146 28.0887 145.146Z" fill="#F6C09C"/>
<path d="M50.2152 110.935H63.481C63.481 103.69 57.557 97.7534 50.2152 97.7534V110.935Z" fill="#711470"/>
<path d="M50.2152 110.935H63.481V137.499C63.481 141.121 60.4937 144.089 56.8481 144.089C53.2026 144.089 50.2152 141.121 50.2152 137.499V110.935Z" fill="#F6C09C"/>
<path d="M50.1552 115.655H63.421V110.926H50.1552V115.655Z" fill="#EE927E"/>
<path d="M57.8609 145.146C62.1114 145.146 65.5571 141.722 65.5571 137.499C65.5571 133.275 62.1114 129.852 57.8609 129.852C53.6104 129.852 50.1647 133.275 50.1647 137.499C50.1647 141.722 53.6104 145.146 57.8609 145.146Z" fill="#F6C09C"/>
<path d="M43.1772 122.355H29.8607V139.662H43.1772V122.355Z" fill="#00757B"/>
<path d="M43.3797 124.166C51.8528 124.166 58.7215 117.341 58.7215 108.922C58.7215 100.503 51.8528 93.6782 43.3797 93.6782C34.9067 93.6782 28.038 100.503 28.038 108.922C28.038 117.341 34.9067 124.166 43.3797 124.166Z" fill="#8F278E"/>
<path d="M43.3797 115.664C36.3924 115.664 30.4683 111.035 28.6456 104.646C28.2405 106.004 28.038 107.463 28.038 108.922C28.038 117.375 34.924 124.166 43.3797 124.166C51.8354 124.166 58.7215 117.324 58.7215 108.922C58.7215 107.463 58.519 106.004 58.1139 104.646C56.2911 110.985 50.3671 115.664 43.3797 115.664Z" fill="#711470"/>
<path d="M43.3797 102.784C40.2405 102.784 37.6582 100.219 37.6582 97.0993V89.3515C37.6582 86.2322 40.2405 83.6664 43.3797 83.6664C46.519 83.6664 49.1012 86.2322 49.1012 89.3515V97.0993C49.1012 100.219 46.519 102.784 43.3797 102.784Z" fill="#EE927E"/>
<path d="M43.3797 97.7534C40.2405 97.7534 37.6582 95.1875 37.6582 92.0683V81.6037C37.6582 78.4844 40.2405 75.9186 43.3797 75.9186C46.519 75.9186 49.1012 78.4844 49.1012 81.6037V92.0683C49.1012 95.1875 46.519 97.7534 43.3797 97.7534Z" fill="#E9686A"/>
<path d="M21.3545 75.164C9.96208 63.8441 9.96208 45.3298 21.3545 34.0602L47.076 8.50248C58.4684 -2.8174 77.1013 -2.8174 88.4431 8.50248C99.8355 19.8224 99.8355 38.3366 88.4431 49.6062L62.7216 75.164C51.3798 86.4838 32.7469 86.4838 21.3545 75.164Z" fill="#DD2B26"/>
<path d="M72.0379 63.1397C75.1978 63.1397 77.7594 60.5944 77.7594 57.4546C77.7594 54.3148 75.1978 51.7695 72.0379 51.7695C68.878 51.7695 66.3164 54.3148 66.3164 57.4546C66.3164 60.5944 68.878 63.1397 72.0379 63.1397Z" fill="#EE927E"/>
<path d="M14.7215 63.1397C17.8814 63.1397 20.443 60.5944 20.443 57.4546C20.443 54.3148 17.8814 51.7695 14.7215 51.7695C11.5616 51.7695 9 54.3148 9 57.4546C9 60.5944 11.5616 63.1397 14.7215 63.1397Z" fill="#EE927E"/>
<path d="M64.7999 83.5126C76.6243 71.7635 76.6243 52.7145 64.7999 40.9654C52.9756 29.2163 33.8045 29.2163 21.9801 40.9654C10.1557 52.7145 10.1557 71.7635 21.9801 83.5126C33.8045 95.2617 52.9756 95.2617 64.7999 83.5126Z" fill="#F6C09C"/>
<path d="M43.481 79.9938C28.8481 79.9938 16.5949 69.6298 13.8101 55.895C13.3544 57.9074 13.1519 60.0205 13.1519 62.1838C13.1519 78.7863 26.7215 92.2696 43.4303 92.2696C60.1392 92.2696 73.7088 78.7863 73.7088 62.1838C73.7088 60.1211 73.5063 58.1087 73.1012 56.1969C70.1139 69.831 58.0126 79.9938 43.481 79.9938Z" fill="#F5B296"/>
<path d="M24.4937 53.1279C24.7468 63.2907 33.1012 71.441 43.4304 71.441C53.7595 71.441 62.0633 63.2907 62.3671 53.1279H24.4937Z" fill="white"/>
<path d="M30.5696 48.7509C30.5696 48.0466 31.1265 47.4932 31.8354 47.4932H34.367C35.0759 47.4932 35.6329 48.0466 35.6329 48.7509C35.6329 49.4553 35.0759 50.0087 34.367 50.0087H31.8354C31.1265 50.0087 30.5696 49.4553 30.5696 48.7509Z" fill="#002334"/>
<path d="M35.3291 45.1788H30.7722C29.8101 45.1788 29 44.3739 29 43.418C29 42.4621 29.8101 41.6571 30.7722 41.6571H35.3291C36.2911 41.6571 37.1013 42.4621 37.1013 43.418C37.1519 44.3739 36.3418 45.1788 35.3291 45.1788Z" fill="#EE927E"/>
<path d="M35.3291 42.5628H30.7722C29.8101 42.5628 29 41.7578 29 40.8019C29 39.846 29.8101 39.041 30.7722 39.041H35.3291C36.2911 39.041 37.1013 39.846 37.1013 40.8019C37.1519 41.7578 36.3418 42.5628 35.3291 42.5628Z" fill="#002334"/>
<path d="M51.1772 48.7509C51.1772 48.0466 51.7342 47.4932 52.4431 47.4932H54.9747C55.6836 47.4932 56.2405 48.0466 56.2405 48.7509C56.2405 49.4553 55.6836 50.0087 54.9747 50.0087H52.4431C51.7848 50.0087 51.1772 49.4553 51.1772 48.7509Z" fill="#002334"/>
<path d="M55.9873 45.1788H51.4304C50.4683 45.1788 49.6582 44.3739 49.6582 43.418C49.6582 42.4621 50.4683 41.6571 51.4304 41.6571H55.9873C56.9493 41.6571 57.7595 42.4621 57.7595 43.418C57.7595 44.3739 56.9493 45.1788 55.9873 45.1788Z" fill="#EE927E"/>
<path d="M55.9873 42.5628H51.4304C50.4683 42.5628 49.6582 41.7578 49.6582 40.8019C49.6582 39.846 50.4683 39.041 51.4304 39.041H55.9873C56.9493 39.041 57.7595 39.846 57.7595 40.8019C57.7595 41.7578 56.9493 42.5628 55.9873 42.5628Z" fill="#002334"/>
<path d="M52.8436 30.1221C53.8589 25.8496 51.1962 21.5682 46.8964 20.5593C42.5965 19.5505 38.2877 22.1962 37.2724 26.4687C36.257 30.7412 38.9197 35.0226 43.2196 36.0314C47.5194 37.0403 51.8282 34.3946 52.8436 30.1221Z" fill="#002334"/>
<path d="M59.8374 33.1588C60.5057 30.3465 58.7531 27.5284 55.9228 26.8643C53.0925 26.2003 50.2563 27.9417 49.588 30.754C48.9197 33.5663 50.6723 36.3844 53.5026 37.0485C56.3329 37.7125 59.1691 35.971 59.8374 33.1588Z" fill="#002334"/>
<path d="M37.3887 35.528C39.3781 34.7092 40.3228 32.443 39.4987 30.4663C38.6747 28.4896 36.394 27.551 34.4046 28.3697C32.4153 29.1885 31.4706 31.4547 32.2947 33.4314C33.1187 35.4081 35.3994 36.3468 37.3887 35.528Z" fill="#002334"/>
<path d="M29.8607 116.419V122.406C29.8607 129.65 35.8354 135.637 43.1772 135.637C50.4683 135.637 56.4936 129.701 56.4936 122.406V116.419H29.8607Z" fill="#009E9E"/>
<path d="M56.443 116.419H29.8607V120.544H56.443V116.419Z" fill="#00757B"/>
<path d="M56.4937 122.355H43.1772V139.662H56.4937V122.355Z" fill="#009E9E"/>
</svg>
