<svg width="135" height="126" viewBox="0 0 135 126" fill="none" xmlns="http://www.w3.org/2000/svg">
<path d="M101.202 77.8176V164.79H132.706V109.322C132.706 91.9271 118.597 77.8176 101.202 77.8176Z" fill="#005C89"/>
<path d="M32.4857 77.8176V164.79H0.981689V109.322C0.981689 91.9271 15.0912 77.8176 32.4857 77.8176Z" fill="#005C89"/>
<path d="M96.5707 149.496H38.948C19.8302 149.496 4.32056 133.986 4.32056 114.868C4.32056 95.7506 19.8302 80.241 38.948 80.241H96.5707C115.689 80.241 131.198 95.7506 131.198 114.868C131.198 133.986 115.689 149.496 96.5707 149.496Z" fill="#0980B7"/>
<path d="M96.7861 126.77H39.1635C23.8692 126.77 10.9445 116.861 6.31314 103.128C5.02067 106.79 4.26672 110.722 4.26672 114.815C4.26672 133.932 19.7764 149.442 38.8942 149.442H96.5169C115.635 149.442 131.144 133.932 131.144 114.815C131.144 110.991 130.498 107.275 129.367 103.829C124.574 117.184 111.811 126.77 96.7861 126.77Z" fill="#0B76A9"/>
<path d="M93.2318 33.8196C97.0686 33.8196 100.179 30.7093 100.179 26.8726C100.179 23.0358 97.0686 19.9255 93.2318 19.9255C89.3951 19.9255 86.2848 23.0358 86.2848 26.8726C86.2848 30.7093 89.3951 33.8196 93.2318 33.8196Z" fill="#EE927E"/>
<path d="M42.2869 33.8196C46.1236 33.8196 49.2339 30.7093 49.2339 26.8726C49.2339 23.0358 46.1236 19.9255 42.2869 19.9255C38.4501 19.9255 35.3398 23.0358 35.3398 26.8726C35.3398 30.7093 38.4501 33.8196 42.2869 33.8196Z" fill="#EE927E"/>
<path d="M47.6183 26.3878C52.615 26.3878 56.6656 22.3372 56.6656 17.3405C56.6656 12.3438 52.615 8.29321 47.6183 8.29321C42.6217 8.29321 38.571 12.3438 38.571 17.3405C38.571 22.3372 42.6217 26.3878 47.6183 26.3878Z" fill="#ACE0F3"/>
<path d="M87.9003 26.3878C92.897 26.3878 96.9476 22.3372 96.9476 17.3405C96.9476 12.3438 92.897 8.29321 87.9003 8.29321C82.9036 8.29321 78.853 12.3438 78.853 17.3405C78.853 22.3372 82.9036 26.3878 87.9003 26.3878Z" fill="#ACE0F3"/>
<path d="M92.9626 26.1187V25.1493C92.9626 11.363 81.5996 0 67.7594 0C53.9192 0 42.5562 11.363 42.5562 25.2032V26.1725C35.9861 32.6349 31.8933 41.6822 31.8933 51.645V81.0487H103.679V51.645C103.625 41.6822 99.5327 32.6349 92.9626 26.1187Z" fill="#F6C09C"/>
<path d="M76.322 19.8718H71.7445C70.3443 19.8718 69.2134 18.7408 69.2134 17.3407C69.2134 15.9405 70.3443 14.8096 71.7445 14.8096H76.322C77.7221 14.8096 78.8531 15.9405 78.8531 17.3407C78.7992 18.7408 77.6683 19.8718 76.322 19.8718Z" fill="#EE927E"/>
<path d="M74.0063 27.3034C72.9831 27.3034 72.1753 26.4956 72.1753 25.4724V22.6721C72.1753 21.6489 72.9831 20.8411 74.0063 20.8411C75.0295 20.8411 75.8373 21.6489 75.8373 22.6721V25.4724C75.8373 26.4956 75.0295 27.3034 74.0063 27.3034Z" fill="#002334"/>
<path d="M76.322 16.5329H71.7445C70.3443 16.5329 69.2134 15.402 69.2134 14.0018C69.2134 12.6016 70.3443 11.4707 71.7445 11.4707H76.322C77.7221 11.4707 78.8531 12.6016 78.8531 14.0018C78.7992 15.402 77.6683 16.5329 76.322 16.5329Z" fill="#ACE0F3"/>
<path d="M63.8281 19.8718H59.2506C57.8504 19.8718 56.7195 18.7408 56.7195 17.3407C56.7195 15.9405 57.8504 14.8096 59.2506 14.8096H63.8281C65.2283 14.8096 66.3592 15.9405 66.3592 17.3407C66.3053 18.7408 65.1744 19.8718 63.8281 19.8718Z" fill="#EE927E"/>
<path d="M61.5124 27.3034C60.4892 27.3034 59.6814 26.4956 59.6814 25.4724V22.6721C59.6814 21.6489 60.4892 20.8411 61.5124 20.8411C62.5356 20.8411 63.3434 21.6489 63.3434 22.6721V25.4724C63.3434 26.4956 62.5356 27.3034 61.5124 27.3034Z" fill="#002334"/>
<path d="M63.8281 16.5329H59.2506C57.8504 16.5329 56.7195 15.402 56.7195 14.0018C56.7195 12.6016 57.8504 11.4707 59.2506 11.4707H63.8281C65.2283 11.4707 66.3592 12.6016 66.3592 14.0018C66.3053 15.402 65.1744 16.5329 63.8281 16.5329Z" fill="#ACE0F3"/>
<path d="M67.7594 56.5457C76.9145 56.5457 84.3462 49.114 84.3462 39.959H51.1727C51.1727 49.114 58.6044 56.5457 67.7594 56.5457Z" fill="white"/>
<path d="M81.1688 29.6191H68.2979H67.2209H54.35C48.48 29.6191 43.741 34.3582 43.741 40.2282V43.5132H62.2125C64.6898 43.5132 66.8439 42.0053 67.8132 39.9051C68.7826 42.0592 70.8829 43.5132 73.414 43.5132H91.8855V40.2282C91.7778 34.4121 87.0388 29.6191 81.1688 29.6191Z" fill="#ACE0F3"/>
<path d="M103.679 71.3013H31.8933V81.0487H103.679V71.3013Z" fill="#00A8C7"/>
<path d="M103.679 66.2393H31.8933V71.3553H103.679V66.2393Z" fill="#EE927E"/>
<path d="M68.9441 71.3013H66.6284V81.0487H68.9441V71.3013Z" fill="#086794"/>
<path d="M62.2664 78.3023C63.4263 78.3023 64.3667 77.362 64.3667 76.2021C64.3667 75.0421 63.4263 74.1018 62.2664 74.1018C61.1065 74.1018 60.1661 75.0421 60.1661 76.2021C60.1661 77.362 61.1065 78.3023 62.2664 78.3023Z" fill="white"/>
<path d="M68.8903 81.1025H66.5208V142.495H68.8903V81.1025Z" fill="#0A6E9E"/>
<path d="M63.5589 92.4655C63.5589 93.2733 62.9127 93.9195 62.1049 93.9195C61.2971 93.9195 60.6509 93.2733 60.6509 92.4655C60.6509 91.6577 61.2971 91.0115 62.1049 91.0115C62.9127 91.0115 63.5589 91.7116 63.5589 92.4655Z" fill="white"/>
<path d="M63.5589 105.282C63.5589 106.09 62.9127 106.736 62.1049 106.736C61.2971 106.736 60.6509 106.09 60.6509 105.282C60.6509 104.475 61.2971 103.828 62.1049 103.828C62.9127 103.828 63.5589 104.475 63.5589 105.282Z" fill="white"/>
<path d="M63.5589 118.1C63.5589 118.907 62.9127 119.554 62.1049 119.554C61.2971 119.554 60.6509 118.907 60.6509 118.1C60.6509 117.292 61.2971 116.646 62.1049 116.646C62.9127 116.646 63.5589 117.292 63.5589 118.1Z" fill="white"/>
</svg>
